<?xml version="1.0" encoding="UTF-8"?>
<svg width="3871px" height="2367px" viewBox="0 0 3871 2367" version="1.1" xmlns="http://www.w3.org/2000/svg" xmlns:xlink="http://www.w3.org/1999/xlink">
    <!-- Generator: Sketch 57.1 (83088) - https://sketch.com -->
    <title>composition-15</title>
    <desc>Created with Sketch.</desc>
    <g id="composition-15" stroke="none" stroke-width="1" fill="none" fill-rule="evenodd">
        <rect fill="#FDF074" x="0" y="0" width="3871" height="2367"></rect>
        <path d="M1200.91432,0.142482128 C1348.60166,3.97208182 1417.65457,51.7430366 1536.16788,122.458576 C1620.61728,172.870634 1723.0733,118.628976 1723.0733,246.689469 C1964.16379,57.3553809 2413.76765,546.22359 2582.76557,674.284083 C2761.04764,809.343499 2936.58742,968.337914 2956.31211,1209.3716 C2962.16013,1280.74741 2947.35835,1353.90597 2958.09625,1424.98466 C2966.19097,1478.53303 3000.12271,1532.04839 2994.34077,1587.57758 C2987.5346,1651.95447 2933.05218,1689.59019 2920.4971,1750.10447 C2915.54115,1774.07248 2932.52354,1822.20659 2921.98389,1841.58568 C2813.91112,2039.56939 2675.40881,2201.99723 2438.28309,2221.57441 C2231.75209,2238.64254 2003.58012,2164.98878 1853.05137,2020.98262 C1719.50502,1893.25227 1639.87941,1701.83831 1605.28687,1522.83754 C1599.27365,1491.8706 1610.67234,1420.92397 1600.46308,1394.74403 C1585.62827,1356.58009 1563.29345,1355.91981 1544.89035,1325.05192 C1496.09075,1243.17772 1426.04665,1088.87126 1489.3837,998.908684 C1333.23821,1034.1344 1214.55971,699.836756 1156.27773,602.347033 C1112.56624,529.353543 1007.23577,472.206671 977.995655,401.194008 C937.885493,303.803326 1082.00454,262.007868 1032.0816,194.164528 C1005.3525,157.849359 861.894247,182.576688 875.969148,91.5906816 C889.052858,7.43852981 1144.5156,-1.34313844 1200.91432,0.142482128 Z" id="Path" fill="#FFFFFF"></path>
        <g id="Character/jumping" transform="translate(1935.500000, 1183.500000) rotate(-12.000000) translate(-1935.500000, -1183.500000) translate(494.000000, 103.000000)">
            <path d="M577.187299,782.470806 C582.159347,774.797568 582.131193,776.440828 591.05329,778.030626 C627.659507,784.550206 664.265723,791.072599 700.87194,797.594992 L700.87194,797.594992 L1072.56778,863.815011 C1116.25199,871.597987 1159.93901,879.380964 1203.6204,887.161126 C1210.00017,888.300716 1222.51475,888.024964 1228.13717,891.530961 C1231.02298,893.331794 1233.17678,898.666763 1235.04341,901.559352 C1243.13214,914.089212 1251.22087,926.619073 1259.3096,939.151748 C1304.71404,1009.48554 1351.46988,1078.93862 1397.81185,1148.65901 C1449.34266,1226.17644 1500.87066,1303.6995 1552.40146,1381.21975 L1552.40146,1381.21975 L1335.61338,1378.40595 C1348.99793,1387.13155 1362.3853,1395.85715 1375.77267,1404.57994 C1470.30917,1466.2022 1564.84848,1527.82165 1659.38779,1589.44111 C1614.34092,1619.45593 1569.29404,1649.46795 1524.24717,1679.48277 L1524.24717,1679.48277 L1572.10947,1730.13121 C1557.18488,1738.61764 1542.25747,1747.10406 1527.33569,1755.59049 C1499.96972,1771.15363 1472.60374,1786.71114 1445.24058,1802.27428 C1435.54142,1807.78933 1425.84227,1813.30439 1416.14311,1818.81944 C1413.86262,1820.1166 1410.63332,1822.82911 1408.23739,1822.61526 C1404.63927,1822.28886 1398.13844,1816.07598 1395.21321,1814.17666 C1385.96452,1808.16357 1376.72991,1802.13078 1367.50657,1796.07829 C1339.1214,1777.46217 1310.84041,1758.6913 1282.66922,1739.7516 C1213.60673,1693.31542 1144.69628,1646.32211 1078.58154,1595.74684 C1048.03413,1572.38384 1019.67712,1548.16263 995.813539,1517.76513 C969.556842,1484.32027 947.872402,1447.38912 928.809128,1409.45626 C912.755548,1377.52242 898.543259,1344.64877 885.93858,1311.20954 C881.605634,1299.71797 870.881662,1281.31852 871.075927,1268.69299 C871.180097,1261.9061 877.081238,1252.14221 879.364552,1245.8618 L879.364552,1245.8618 L895.618027,1201.19551 C898.396856,1193.55322 903.855974,1184.06789 904.80759,1175.93038 C905.964731,1166.1074 901.195393,1152.66586 899.660984,1142.96106 C898.917711,1138.24231 899.021882,1124.94429 895.43784,1122.2768 C893.055986,1120.50129 884.069135,1121.40171 881.203027,1121.17942 C857.956024,1119.39547 834.711837,1117.60589 811.464834,1115.81913 C749.12559,1111.02722 686.791976,1106.23532 624.455548,1101.44341 C607.298319,1100.12374 588.021072,1101.04104 571.179172,1097.34651 C558.456245,1094.55804 550.502656,1084.36082 546.699011,1072.43874 C535.282443,1036.63311 524.488086,1000.2619 517.53679,963.294169 C510.813544,927.564511 517.305925,899.764146 531.965867,866.704785 C544.798596,837.767645 559.954054,809.069677 577.187299,782.470806 Z M2230.92002,1125.16376 C2218.5997,1172.0811 2201.38335,1230.77138 2165.00518,1264.76774 C2151.17579,1277.69435 2132.71783,1286.13857 2115.89564,1294.35205 C2091.15364,1306.42608 2065.77818,1317.22545 2040.2366,1327.48457 C1995.15312,1345.5942 1947.79478,1365.65661 1899.75792,1374.44693 C1886.42404,1376.88368 1879.63323,1374.49195 1868.53199,1366.49513 C1849.88821,1353.06203 1833.02942,1336.92488 1816.36208,1321.17884 C1789.64365,1295.93622 1763.65442,1269.8776 1738.21982,1243.34345 C1834.56946,1243.1099 1933.92034,1238.7063 2028.20908,1218.01923 C2100.03351,1202.26194 2172.162,1169.78504 2230.92002,1125.16376 Z" id="Accent" fill="#FF5678"></path>
            <path d="M1247.30546,135.045336 C1270.52149,145.386058 1282.77424,173.996798 1294.96223,194.686685 C1309.59121,219.515674 1322.84343,245.518019 1330.31558,273.475957 C1337.97355,302.123276 1339.03497,333.533749 1335.63956,362.926725 C1334.14738,375.85896 1330.64499,387.629094 1326.94552,400.001381 C1322.98984,413.226251 1329.15,420.789751 1338.53382,430.114691 C1358.02786,449.484905 1382.57278,464.347407 1397.04127,488.211263 C1409.29683,508.431245 1423.54854,512.173601 1446.65477,513.040252 C1504.04167,515.192811 1560.27988,513.417302 1617.13467,524.388316 C1631.56938,527.17398 1645.91399,530.584308 1660.11502,534.391383 C1664.78019,535.640711 1669.65932,537.824221 1674.46808,538.263174 C1681.39967,538.893466 1682.58215,536.138754 1687.75972,533.474083 C1710.54218,521.754598 1739.45664,533.01262 1762.22784,539.442157 C1819.71047,555.674982 1873.9469,577.771769 1926.04924,607.04938 C1982.30998,638.66526 2042.28707,663.207242 2098.02977,695.762932 C2151.88049,727.212798 2200.25802,766.794552 2250.48528,803.509042 C2301.56281,840.851009 2350.01072,881.257207 2397.24519,923.329176 C2442.9002,963.99143 2490.10087,1003.9024 2530.93868,1049.5282 C2568.16992,1091.12464 2597.58272,1140.36899 2617.31325,1192.69726 C2623.89854,1210.16253 2619.84432,1221.1645 2599.2579,1215.40183 C2597.43632,1233.0697 2584.25729,1240.45311 2567.55053,1236.67699 C2572.68024,1251.5001 2584.39806,1271.57939 2577.69452,1287.53083 C2568.77806,1308.73846 2543.23929,1293.30194 2530.71626,1285.03781 C2532.07612,1302.08663 2539.33148,1329.76319 2525.24307,1343.52268 C2503.40941,1364.84286 2466.56107,1337.67279 2451.09591,1321.74104 C2411.69116,1281.14069 2386.49025,1230.90307 2351.50572,1187.10342 C2308.14528,1132.81955 2259.3004,1081.63931 2210.27813,1032.49626 C2206.40973,1028.61602 2162.7762,981.828121 2156.52313,988.187314 C2175.56107,1019.69346 2190.77565,1054.37357 2217.39272,1080.54755 C2230.02837,1062.81216 2239.18133,1071.55183 2241.55474,1089.36038 C2244.40396,1110.76779 2247.57976,1133.31197 2243.62971,1154.76721 C2235.86476,1196.99675 2209.19138,1237.16096 2181.16378,1268.78529 C2151.84389,1301.86153 2115.44038,1327.04787 2076.38756,1347.32131 C2054.27799,1358.79881 2032.10367,1369.55317 2008.32173,1377.08853 C1997.67096,1380.46509 1987.0033,1384.37909 1976.06254,1386.72299 C1965.54409,1388.97684 1954.16976,1388.81927 1944.434,1393.92069 C2031.64194,1435.5312 2128.12671,1453.06118 2215.54017,1493.59963 C2236.639,1503.38322 2279.0084,1528.81436 2257.59988,1557.39978 C2241.03952,1579.51626 2203.40285,1580.2985 2178.70027,1584.71054 C2196.87387,1601.85504 2194.16543,1617.77272 2170.27651,1627.1061 C2160.67871,1630.85408 2150.67549,1632.59301 2140.4414,1632.86032 C2133.49292,1633.04041 2121.48511,1630.56989 2115.87115,1636.02866 C2137.53025,1645.94732 2167.05847,1645.34516 2184.86043,1662.77104 C2203.02277,1680.54864 2181.32989,1694.8512 2165.09893,1701.70843 C2143.74953,1710.72385 2114.39304,1720.23451 2092.67482,1709.36197 C2075.50915,1700.76862 2059.66109,1702.63136 2040.67946,1700.37188 C2021.1066,1698.04205 2001.75896,1693.85511 1982.87869,1688.22469 C1910.9867,1666.78633 1844.7875,1627.11173 1781.29956,1588.08429 C1717.87074,1549.09343 1658.71575,1504.79575 1604.01195,1454.24579 C1590.5176,1441.77502 1579.2784,1426.93503 1565.48561,1414.86101 C1550.96926,1402.15388 1535.77157,1401.01429 1517.20099,1401.22532 C1474.98362,1401.70367 1432.8479,1394.19644 1390.65306,1399.14592 C1451.30023,1444.828 1515.38786,1485.06537 1579.18549,1526.09623 C1603.46013,1541.71002 1628.97918,1562.52934 1657.51919,1569.33593 C1670.03941,1572.32418 1696.90424,1574.3051 1701.06263,1589.73318 C1704.10329,1600.9912 1694.46889,1602.88208 1688.69726,1608.99084 C1680.33825,1617.83743 1692.10675,1620.79474 1700.73322,1624.46112 C1711.6036,1629.07857 1721.52799,1630.56707 1733.36968,1629.34588 C1751.49542,1627.47471 1765.71615,1628.09656 1782.60592,1635.85702 C1809.14697,1648.04641 1837.64194,1654.6082 1864.25056,1666.53028 C1875.27015,1671.4685 1878.16723,1686.18469 1883.48558,1696.1765 C1891.8474,1711.88033 1901.50996,1726.83287 1910.99233,1741.87264 C1928.86749,1770.22451 1944.29323,1799.38676 1969.65744,1822.0041 C1991.88525,1841.82452 2016.6357,1859.37983 2040.778,1876.80571 C2078.48224,1904.02924 2126.4459,1937.68794 2114.32829,1991.08547 C2102.34582,2043.87239 2047.60261,2038.19695 2005.8892,2028.77072 C1988.33218,2024.80326 1964.33909,2013.70843 1946.63848,2018.92241 C1931.36478,2023.42449 1920.84633,2024.09418 1905.00109,2020.50095 C1886.6276,2016.3309 1868.13867,2013.61839 1849.52587,2010.74269 C1810.50683,2004.71271 1771.16401,1994.76592 1733.87928,1981.72676 C1715.99567,1975.47168 1701.05981,1967.12313 1686.97422,1954.34284 C1682.79049,1950.54983 1679.74701,1945.16703 1674.18372,1945.21205 C1669.4538,1945.25144 1662.1365,1953.6422 1658.47644,1956.55449 C1646.92191,1965.74999 1634.14268,1973.42886 1620.95521,1962.49161 C1612.53707,1955.50775 1605.04521,1940.31322 1617.21913,1933.12114 C1626.55228,1927.60609 1643.59689,1933.92589 1650.28917,1923.49794 C1657.29677,1912.58039 1641.63172,1896.7415 1636.72724,1887.86676 C1621.92371,1897.90922 1600.13792,1918.22206 1582.96943,1901.40959 C1569.21606,1887.94555 1584.51792,1879.77427 1597.20143,1875.46634 C1612.88055,1870.137 1631.02318,1870.82356 1623.03299,1849.86918 C1618.49171,1837.96961 1611.2279,1827.3053 1610.05949,1814.31679 C1609.17263,1804.44316 1612.02185,1794.94095 1612.09223,1785.14611 C1612.21611,1767.63863 1593.38089,1752.55946 1576.97256,1748.41192 C1566.95245,1745.87668 1563.97654,1754.43346 1557.82201,1760.99243 C1548.77885,1770.63251 1537.22433,1777.8471 1525.7064,1784.13595 C1506.80924,1794.45135 1486.97454,1802.63951 1467.17081,1810.96274 C1454.04809,1816.47779 1430.85176,1823.70364 1440.22151,1840.41762 C1453.93266,1864.88644 1421.79453,1853.1754 1410.20903,1847.62377 C1383.25411,1834.70842 1356.03453,1822.37833 1329.41746,1808.75672 C1274.8291,1780.81285 1224.60183,1746.3072 1176.38478,1708.54034 C1129.05178,1671.46287 1082.8365,1632.07809 1039.83081,1590.03144 C1018.99945,1569.65951 999.085913,1548.23523 981.348706,1525.09733 C962.296693,1500.24583 946.254375,1473.29805 926.841987,1448.69416 C906.700403,1423.15891 886.7925,1398.3862 873.816184,1368.26444 C861.7943,1340.35434 848.147912,1309.19992 847.931124,1278.53792 C847.691812,1244.66256 847.826953,1214.23692 859.035178,1181.74313 C863.711607,1168.18623 869.328389,1154.06657 877.479058,1142.21203 C879.821496,1138.80451 892.119293,1127.15256 889.599483,1122.50697 C889.740255,1122.76865 861.659159,1127.05689 858.722666,1127.33545 C840.081706,1129.11659 821.328129,1125.92293 802.757554,1124.18962 C747.845414,1119.0685 692.415234,1120.98752 637.705804,1113.45215 C617.079967,1110.61021 594.700116,1113.59566 574.566978,1108.35917 C565.056457,1105.88865 562.714019,1100.44395 555.726123,1095.9897 C552.536241,1093.95532 549.12394,1094.62782 546.156477,1091.80276 C542.682237,1088.49373 541.930517,1083.71871 540.393293,1079.40234 C532.180684,1056.3573 518.342847,1035.77996 510.211886,1012.6899 C501.070186,986.718509 501.484054,959.804492 502.148496,932.65693 C488.569678,933.73743 474.306712,933.827471 461.566892,928.33493 C451.284943,960.628936 407.00105,960.046479 379.77866,957.595657 C345.782346,954.537055 305.921493,951.337762 288.691063,917.237294 C268.442493,877.160311 269.779822,828.506859 267.330398,784.76912 C264.453029,733.403163 263.633739,681.269038 266.159179,629.872129 C268.307352,586.1569 278.273973,540.778713 306.554965,506.084534 C331.508118,475.473181 374.677101,457.557703 408.633999,486.123422 C434.155869,507.598359 445.29934,546.274069 446.968889,578.483661 C447.819149,594.874058 447.053352,609.595871 467.242799,605.051581 C475.004938,603.30421 482.060405,600.479152 487.784174,608.436585 C492.832239,615.445765 490.51514,625.578267 484.124115,630.82038 C478.332776,635.575706 467.065426,634.770958 463.098486,641.839229 C459.168146,648.84841 465.384615,660.07548 472.834242,661.502078 C481.317132,663.125642 487.848928,652.233414 496.390942,657.287002 C504.217837,661.921335 500.129833,670.579404 494.884687,675.649875 C488.67948,681.654529 482.702323,682.90667 487.13944,692.40888 C490.540479,699.699441 497.348188,704.55325 500.402929,712.282764 C507.94265,731.351901 510.43149,758.752706 502.04714,777.931581 C516.597281,779.549517 551.776075,796.750289 563.220797,782.836038 C567.373555,777.788077 567.869071,770.373708 572.356866,765.22445 C577.635797,759.163521 585.015038,756.586078 592.827855,755.609689 C609.5318,753.521848 626.621458,758.60076 642.846779,761.873212 C669.745394,767.30385 696.807304,772.059176 723.824168,776.856708 C778.1873,786.510863 833.054393,793.230223 887.282384,803.601897 C941.394943,813.953875 994.950047,827.043682 1048.46573,840.080027 C1076.52994,846.914752 1104.46463,854.596432 1132.73718,860.516672 C1159.15998,866.045793 1186.69489,870.122992 1211.28766,881.819967 C1206.42542,851.762933 1192.85786,824.142652 1184.40031,795.087332 C1175.70063,765.20194 1173.25684,735.37001 1178.16695,704.595457 C1182.66882,676.398346 1189.33576,648.994728 1203.73105,624.075696 C1209.55054,613.999471 1215.95565,603.962639 1224.34,595.836379 C1230.30026,590.056829 1238.69306,585.250855 1243.40609,578.359854 C1248.05436,571.558894 1247.06614,569.980351 1238.69587,566.84859 C1234.04197,565.104032 1229.81601,564.577851 1225.40423,562.135471 C1221.34719,559.890057 1217.85606,555.812858 1213.08672,555.036249 C1202.08402,553.241043 1185.99947,563.899725 1175.92024,567.69273 C1162.16123,572.867312 1147.94613,577.526969 1133.26085,579.102698 C1085.0635,584.274466 1027.90465,556.333411 994.862768,522.483372 C983.83473,511.185957 958.526833,485.208936 968.811597,467.980026 C974.239746,458.885818 983.944532,461.046818 992.092385,456.916156 C1004.85191,450.447225 996.765999,439.715384 990.653701,431.198005 C974.00325,407.995393 962.837256,381.441543 950.916726,355.624909 C938.782224,329.349625 922.148666,305.860005 908.510724,280.426048 C898.721475,262.175728 887.375294,241.761594 882.876237,221.45157 C877.380518,196.647905 894.177372,193.141907 914.713116,189.588075 C979.665079,178.344122 1043.61756,163.236819 1107.98673,149.170622 C1133.64656,143.565529 1159.43026,137.867579 1185.2562,133.08693 C1205.38371,129.361456 1227.97753,126.440729 1247.30546,135.045336 Z M1817.40744,1682.40012 C1783.91228,1684.12217 1750.21158,1691.55623 1749.1389,1730.61743 C1753.20157,1804.73861 1801.4327,1860.14237 1852.38634,1909.30512 C1865.24159,1921.70836 1877.82375,1934.85726 1891.78547,1946.03649 C1900.00089,1952.61235 1908.95677,1955.6203 1917.84508,1960.83147 C1920.02423,1962.10893 1923.78845,1966.38873 1925.81275,1967.03871 C1930.61587,1968.59193 1931.03256,1966.84737 1935.71743,1966.35215 C1945.93181,1965.27727 1947.81815,1972.39056 1955.5831,1978.20951 C1970.31625,1989.24805 1996.75876,1987.63293 2014.05958,1991.08547 C2030.03714,1994.2735 2093.6377,2017.29885 2090.77722,1984.13537 C2087.9815,1951.73163 2053.40239,1935.98841 2029.03485,1921.51702 C1995.07232,1901.34769 1960.06245,1879.5154 1931.46613,1852.02737 C1904.28034,1825.88996 1886.53187,1790.12654 1868.27381,1757.57647 C1856.89385,1737.29177 1853.74338,1720.091 1850.45777,1697.42301 C1849.06695,1687.83357 1848.92618,1684.69618 1839.53954,1683.07825 C1832.28136,1681.82892 1824.73038,1682.02307 1817.40744,1682.40012 Z M1700.87118,1677.01451 C1681.52073,1683.28084 1666.90583,1698.79052 1657.27425,1716.33176 C1652.34443,1725.3106 1649.51774,1734.36542 1647.88761,1744.40506 C1645.81264,1757.18254 1641.03767,1770.82948 1644.61045,1783.67449 C1651.09157,1806.98965 1668.09958,1832.4433 1681.45879,1852.44662 C1696.47911,1874.94297 1715.9844,1900.19403 1739.68751,1913.98448 C1762.50093,1927.25999 1790.05273,1930.79694 1811.21068,1947.18171 C1809.3159,1938.17192 1800.86116,1931.52009 1794.2252,1925.90093 C1784.55138,1917.70995 1776.09101,1909.57806 1767.87277,1899.82542 C1749.69636,1878.26044 1734.58876,1854.90589 1724.9065,1828.30139 C1715.52549,1802.52133 1710.15365,1773.50541 1711.35021,1746.023 C1711.91892,1732.94445 1714.16845,1719.04989 1719.81902,1707.11937 C1723.5917,1699.14506 1730.28397,1692.3638 1733.17542,1683.97867 C1739.79168,1664.75477 1710.52247,1673.88837 1700.87118,1677.01451 Z M1276.55214,1039.83184 C1249.53809,1042.89888 1222.75491,1048.08472 1195.54378,1050.59744 C1140.5331,1055.67354 1083.43337,1058.67587 1033.58337,1084.93708 C961.049458,1123.15414 877.515659,1207.96214 902.671523,1297.29473 C932.388383,1402.82075 995.918554,1498.2424 1075.46007,1572.9179 C1126.23916,1620.58933 1181.85235,1663.54765 1237.63727,1705.16378 C1291.59498,1745.42085 1354.01869,1771.82557 1409.64595,1809.46017 C1413.41581,1754.00294 1448.28209,1703.14629 1489.51124,1667.86402 C1511.66586,1648.90744 1534.91849,1630.74434 1559.76184,1615.43445 C1571.96673,1607.91034 1584.60801,1601.55396 1597.47734,1595.27074 C1607.24688,1590.50416 1618.04124,1583.40775 1629.20723,1582.87594 C1629.02704,1574.69903 1608.50538,1571.67982 1602.84355,1569.75518 C1583.30447,1563.11742 1564.5537,1552.94553 1546.45612,1543.09159 C1507.05418,1521.63917 1470.64786,1495.45955 1434.18805,1469.44877 C1416.36638,1456.73601 1398.26316,1444.40311 1380.63294,1431.42023 C1364.75674,1419.7317 1350.6824,1404.52591 1333.62371,1394.57349 C1316.07514,1384.33688 1295.33106,1382.19839 1275.75256,1378.42508 C1252.23246,1373.88923 1229.08963,1368.50362 1205.45691,1364.5249 C1165.99303,1357.88151 1128.74208,1334.65358 1092.3611,1318.82594 C1080.13087,1313.50223 1061.46739,1308.88478 1052.13142,1298.80574 C1043.67106,1289.67495 1045.88117,1275.57499 1056.7262,1269.31709 C1075.37843,1258.55711 1106.46359,1272.58955 1124.09944,1279.53401 C1156.72464,1292.37902 1189.1246,1303.87621 1223.74594,1310.45769 C1271.16904,1319.47312 1316.23562,1336.34749 1363.72347,1345.18001 C1414.93332,1354.70192 1466.26424,1365.12424 1518.32716,1368.63587 C1505.57045,1343.37074 1484.42094,1322.37977 1467.94786,1299.52607 C1449.04789,1273.30988 1430.17606,1247.0768 1411.43938,1220.74243 C1378.4172,1174.31751 1341.59138,1127.66748 1316.49182,1076.35217 C1307.88506,1058.76028 1299.41624,1037.2347 1276.55214,1039.83184 Z M1521.78451,1716.28674 C1514.26731,1717.48823 1508.59141,1725.00109 1503.4814,1729.96745 C1487.6615,1745.33643 1472.17664,1760.55348 1459.29605,1778.57306 C1479.22648,1770.1598 1495.47995,1755.49707 1514.69244,1745.8598 C1521.61559,1742.38476 1546.06478,1734.64117 1541.13778,1724.96169 C1538.36739,1719.52543 1527.31683,1715.40321 1521.78451,1716.28674 Z M1613.24656,1654.38591 C1593.73282,1667.69519 1573.41949,1679.59476 1552.84152,1691.16512 C1567.27341,1696.6464 1581.68559,1704.2099 1593.53011,1714.14544 C1598.94699,1718.68973 1610.08202,1731.99057 1617.91454,1728.64777 C1625.19524,1725.54134 1629.15092,1707.53863 1632.67584,1701.04156 C1641.69929,1684.40636 1654.32368,1668.69409 1667.89687,1655.57615 C1647.50471,1641.93483 1633.83861,1640.34222 1613.24656,1654.38591 Z M1448.53829,929.871265 C1432.9211,934.215776 1417.42498,938.96266 1401.81905,943.340936 C1370.66069,952.083419 1338.81818,959.390863 1306.28026,959.390863 C1301.85159,967.534006 1314.5351,980.815152 1318.43166,987.025213 C1328.66011,1003.3312 1337.39357,1020.81898 1346.6676,1037.69898 C1366.32775,1073.47928 1387.7785,1107.87239 1410.91852,1141.49732 C1434.29785,1175.47117 1455.41639,1211.05451 1479.3588,1244.61754 C1502.5326,1277.1057 1528.0235,1308.6653 1553.12587,1339.68466 C1650.92827,1460.54027 1787.24011,1543.88509 1921.21234,1618.75755 C1958.76454,1639.74288 1997.88775,1658.23238 2039.47446,1669.69299 C2056.64577,1674.42581 2074.16055,1678.43266 2091.62748,1681.95836 C2103.36501,1684.32476 2122.89564,1689.62878 2133.70408,1682.03996 C2099.7697,1668.60124 2055.30281,1663.41821 2027.89178,1637.41587 C2010.92319,1621.31811 2029.53318,1609.3088 2046.83399,1606.31773 C2080.31227,1600.52974 2115.00962,1615.10523 2147.87132,1605.64804 C2139.08718,1589.54184 2113.84122,1590.31001 2098.48305,1586.17653 C2079.06503,1580.94567 2078.34428,1571.13957 2096.83321,1564.47086 C2119.58751,1556.263 2145.81887,1560.71444 2169.53324,1559.20343 C2181.10747,1558.46621 2229.61732,1556.53313 2214.96582,1534.31253 C2203.43382,1516.83038 2175.36117,1511.92874 2156.98768,1505.4795 C2131.20961,1496.43313 2106.16917,1482.31347 2079.91529,1475.30429 C2054.23576,1468.44705 2028.07197,1464.23479 2002.39244,1456.99488 C1975.59236,1449.43982 1949.20334,1441.04343 1923.73496,1429.70663 C1874.63387,1407.84901 1829.11119,1378.17465 1787.64554,1344.11077 C1744.91858,1309.00577 1707.4621,1268.77684 1672.99842,1225.63563 C1654.86424,1202.9395 1637.60847,1179.58495 1619.96981,1156.51177 C1602.93083,1134.23208 1583.66484,1112.99632 1570.02408,1088.40087 C1554.94183,1061.19704 1535.3943,1036.36523 1519.77429,1009.25706 C1511.31111,994.566203 1502.2032,980.156723 1494.31155,965.150716 C1488.70321,954.480779 1484.88267,938.836039 1477.29791,929.564561 C1470.16642,920.850216 1457.6997,927.324775 1448.53829,929.871265 Z M727.161578,1274.60676 C732.395462,1279.38741 731.525494,1281.35707 730.51757,1287.42926 C728.45386,1299.87189 726.176178,1312.08379 725.218932,1324.70932 C721.936141,1367.88993 728.02873,1412.67159 734.760423,1455.32039 C741.480853,1497.87351 757.635789,1537.18796 782.532634,1572.38299 C806.655235,1606.48346 835.772409,1633.65072 874.132639,1650.3844 C880.717929,1653.25729 906.797254,1663.7978 905.110811,1673.5223 C903.843868,1680.83537 890.304467,1676.69908 885.436589,1675.65516 C816.4839,1660.88832 758.046842,1598.57105 723.200268,1540.56171 C708.774007,1516.54872 699.49435,1492.13336 691.526684,1465.59076 C690.361097,1461.71334 673.662783,1406.79637 679.302089,1406.10699 C674.434211,1368.07845 672.978634,1321.84206 690.960783,1286.64421 C697.678398,1273.49812 713.419466,1262.06564 727.161578,1274.60676 Z M606.859675,1282.78733 C600.56719,1311.45434 602.647792,1340.70382 604.035799,1369.74225 C604.289188,1375.02939 607.312959,1391.33537 598.559788,1391.02304 C592.374289,1390.80356 587.444472,1375.01813 585.926955,1370.96907 C576.734578,1346.39895 573.468679,1318.72521 578.060645,1292.82697 C579.510591,1284.62755 581.700996,1274.68076 590.721632,1271.8332 C598.568235,1269.35705 607.555086,1273.78035 606.859675,1282.78733 Z M2218.18668,1150.43677 C2214.30983,1152.30795 2212.60086,1155.87022 2211.44372,1159.78141 C2181.11028,1185.62336 2145.42471,1210.63525 2109.95593,1228.8715 C2078.27108,1245.15779 2041.5804,1252.02347 2006.99848,1259.39 C1927.91024,1276.23905 1849.15986,1283.04563 1770.27997,1261.23867 C1802.51382,1290.96367 1831.74361,1330.46101 1872.37871,1349.3979 C1892.56815,1358.80726 1914.91422,1353.13182 1935.26978,1347.17218 C1960.24545,1339.85911 1985.37316,1332.38847 2009.54363,1322.69211 C2055.21271,1304.37425 2104.06042,1284.10362 2142.46288,1252.70441 C2159.48778,1238.78453 2173.36503,1221.57813 2185.58118,1203.39815 C2192.57753,1192.98427 2198.49838,1181.84724 2205.57918,1171.50933 C2209.65874,1165.5497 2218.59491,1158.20849 2218.18668,1150.43677 Z M1881.19945,621.830282 C1880.03949,636.532398 1871.37642,648.882176 1863.73534,660.953387 C1858.53806,669.161247 1848.41659,679.060203 1853.21689,688.371074 C1858.91532,699.420875 1877.08329,706.480704 1886.49809,714.038577 C1900.43728,725.229068 1913.49243,737.455038 1926.32797,749.877974 C1949.35819,772.171728 1973.20488,793.781728 1995.74239,816.551014 C2017.15936,838.183525 2037.94005,860.224036 2064.95128,874.973987 C2124.25549,907.358035 2176.46764,952.606786 2228.28844,995.632634 C2281.12279,1039.49699 2333.30678,1085.60677 2379.15324,1136.84892 C2403.68689,1164.26942 2424.07623,1194.36866 2441.56568,1226.67674 C2450.55816,1243.29787 2460.1982,1259.5532 2469.20757,1276.1687 C2473.19422,1283.51835 2477.69609,1290.65697 2481.32236,1298.19796 C2484.01673,1303.80024 2485.77074,1312.87194 2490.74842,1317.02229 C2500.60243,1295.17312 2485.23018,1266.27256 2476.31935,1246.59001 C2470.22957,1233.13723 2464.25241,1219.63098 2458.24147,1206.1388 C2454.02114,1196.67598 2445.2539,1185.25194 2444.77246,1174.69174 C2443.60124,1149.0158 2476.68254,1167.48841 2485.75385,1175.71878 C2508.20972,1196.09071 2521.1607,1226.71613 2537.0538,1251.9897 C2540.79269,1231.8682 2500.70941,1200.79539 2517.30356,1183.25696 C2530.46569,1169.34833 2554.72906,1201.93216 2562.09423,1210.75624 C2567.14511,1185.87661 2554.19976,1161.53722 2540.66881,1141.62394 C2525.59218,1119.42867 2508.16467,1098.32234 2490.3064,1078.33309 C2448.56203,1031.61554 2400.85457,990.033168 2353.65671,948.960099 C2306.7066,908.098065 2258.36849,868.898988 2210.23309,829.446669 C2163.48851,791.136754 2116.04289,752.829652 2063.79696,722.15921 C2034.50241,704.961251 2003.77481,690.574281 1973.86932,674.52154 C1942.55048,657.711887 1912.85896,638.023713 1881.19945,621.830282 Z M1472.87487,565.157495 C1471.50938,565.497965 1463.60647,566.446216 1463.01523,567.141225 C1460.43911,570.174504 1463.87394,579.983418 1466.91179,581.744858 C1456.42994,589.575669 1444.65582,596.70303 1431.3332,597.921406 C1439.71474,606.140522 1455.63881,620.519051 1453.16123,633.774872 C1449.75174,652.011124 1427.82799,639.222393 1418.94813,633.704527 C1404.69924,624.843864 1390.13783,615.445765 1379.70385,602.085833 C1373.07915,593.607848 1370.82399,584.61775 1365.86602,575.486962 C1363.17446,570.526229 1364.73984,569.628626 1358.77676,569.285342 C1351.96342,568.899851 1340.30754,575.357527 1333.99254,577.923715 C1324.23989,581.891176 1314.72937,586.469232 1305.5567,591.641 C1288.63596,601.18823 1272.79636,612.772654 1258.9191,626.383014 C1230.18483,654.554801 1210.72458,691.567553 1208.25826,732.094745 C1228.65042,729.677689 1248.60055,720.890185 1265.78312,709.927612 C1278.02179,702.122125 1290.50541,692.94913 1292.66484,714.975573 C1293.50384,723.554855 1291.10228,743.53285 1285.95004,750.170609 C1281.13847,756.369415 1279.06069,751.343965 1274.06611,755.060997 C1268.29167,759.366114 1271.34078,765.562107 1271.34078,771.606154 C1268.55632,769.270698 1265.77467,766.938056 1262.99585,764.6026 C1257.96186,771.175642 1263.65747,767.655575 1265.55789,771.631478 C1266.66717,773.950051 1259.0824,780.624389 1257.5677,781.806186 C1254.43412,784.254194 1252.70263,782.228256 1249.11859,785.745509 C1246.81557,788.007806 1244.33236,793.083905 1241.83508,795.908962 C1228.92633,810.506967 1246.0188,833.383178 1252.77865,848.861904 C1257.78167,860.325333 1263.24079,871.560845 1268.44652,882.925792 C1272.25861,891.24339 1274.31669,901.117022 1279.37883,908.781819 C1289.42428,923.996047 1312.44324,915.684075 1327.46919,913.821338 C1347.85008,911.29173 1367.86497,908.703032 1388.26839,906.786833 C1400.22833,905.664126 1413.7424,898.708407 1398.38423,889.707055 C1383.14149,880.776047 1330.48451,879.084952 1330.14384,856.110258 C1329.78347,831.686456 1363.73755,827.626139 1380.76527,829.725236 C1405.67338,832.79228 1421.76919,839.0755 1438.80817,857.863256 C1434.99045,822.035114 1409.55585,792.402965 1403.87995,756.456643 C1402.33709,746.69275 1397.59872,686.511151 1421.07659,712.510682 C1433.6503,726.436189 1443.60848,747.511566 1452.90221,763.614956 C1466.9681,787.993737 1479.22648,813.326397 1492.14085,838.315773 C1504.46117,862.16556 1522.51089,885.081164 1531.14018,910.453217 C1535.9968,924.724821 1542.77354,954.719952 1558.1852,962.002071 C1568.05891,966.670169 1584.72907,960.561405 1594.92656,959.072904 C1601.22749,958.15279 1607.37357,957.252374 1612.7792,953.616941 C1615.57774,951.734508 1618.34249,946.855375 1621.87585,946.309497 C1632.05645,944.736582 1634.68324,960.280025 1633.99065,967.435523 C1632.92078,978.471255 1627.85019,981.332892 1617.55135,982.615986 C1634.91129,991.116482 1608.16471,1017.70691 1603.47139,1028.30932 C1603.22645,1027.76625 1600.18015,1020.31531 1597.91655,1020.32375 C1593.41749,1020.33782 1611.70089,1056.31228 1613.08045,1058.81375 C1622.6698,1076.17772 1634.7114,1091.78869 1646.35883,1107.7936 C1653.05392,1116.99192 1662.68832,1138.75105 1676.30655,1136.69416 C1683.84909,1135.55738 1699.51977,1120.03645 1705.44625,1130.67825 C1710.79275,1140.27613 1694.27744,1150.57183 1691.79142,1158.20286 C1687.62177,1171.00285 1703.30934,1184.46126 1712.5524,1191.17218 C1737.05227,1208.95823 1768.81876,1213.15642 1797.81205,1218.52515 C1792.27129,1211.06014 1780.20436,1206.99419 1779.96504,1196.30456 C1779.80175,1189.03651 1784.94272,1185.06905 1781.46848,1177.15945 C1778.60801,1170.6455 1771.43711,1166.86093 1769.30301,1159.87989 C1766.94931,1152.18133 1770.66005,1143.43603 1774.89446,1137.07684 C1792.83719,1110.1178 1832.91765,1121.33643 1856.42085,1133.58491 C1854.68655,1134.34801 1853.24595,1135.45147 1852.10338,1136.89385 L1851.82692,1137.26051 L1851.88942,1137.21724 C1854.90439,1135.37153 1867.97917,1141.15626 1869.60833,1142.33021 C1874.75775,1146.0388 1881.70341,1154.6828 1885.2593,1160.03746 C1896.70684,1177.27763 1898.34542,1198.2911 1892.39923,1217.83296 C1964.07162,1217.83296 2031.59126,1198.74131 2095.73238,1168.31004 C2110.38106,1161.36276 2124.77072,1156.91414 2138.64797,1148.16884 C2152.90531,1139.19 2166.45034,1129.2207 2180.45147,1119.87325 C2193.60234,1111.09137 2192.41423,1105.81831 2183.60475,1093.33347 C2172.87797,1078.13894 2163.42938,1061.93988 2151.52293,1047.60919 C2149.69572,1051.57946 2148.9806,1059.52282 2145.07278,1061.96239 C2140.75391,1064.65801 2136.78979,1059.30335 2133.87863,1061.32929 C2134.13765,1061.1492 2124.93683,1075.43487 2123.45591,1071.87823 C2127.29053,1081.08218 2111.94081,1075.20133 2109.2211,1073.49617 C2109.85457,1082.12328 2102.68086,1089.54891 2098.65198,1078.01795 C2087.7084,1088.02664 2061.75859,1078.8649 2075.75409,1063.4312 C2082.66315,1055.81142 2090.18316,1051.76236 2094.52737,1041.81557 C2099.38962,1030.68417 2101.08732,1018.08396 2101.69827,1006.04933 C2103.13977,977.677763 2087.77879,964.430383 2068.52125,946.033745 C2057.76912,935.760553 2046.54119,926.010729 2035.47937,916.078008 C2025.75487,907.349594 2017.34237,896.538966 2007.13925,888.446471 C1999.81069,882.63597 1993.96304,880.964571 1986.85126,886.009719 C1983.9204,888.089118 1982.96597,890.731279 1979.20174,892.734706 C1974.3761,895.303707 1967.21927,896.893505 1961.83617,897.56319 C1934.77426,900.931311 1903.45261,891.659833 1878.6543,881.670836 C1871.86349,878.93582 1868.61166,874.484385 1862.73305,871.099381 C1859.01668,868.958078 1855.84932,870.255241 1851.9049,867.697495 C1841.5948,861.014715 1842.11284,850.288501 1849.60751,841.937137 C1867.16735,822.367143 1892.39078,839.970289 1910.33633,824.167976 C1932.69647,804.476989 1895.41737,777.25064 1880.35764,765.199126 C1868.30478,755.550599 1857.94963,753.462758 1843.2193,750.930336 C1840.13359,750.398527 1819.67105,744.49517 1826.83069,752.981598 C1810.93196,752.570782 1803.11351,752.6355 1790.31456,762.554152 C1786.95576,765.154105 1782.49049,767.613368 1781.56702,772.050734 C1781.07995,774.391818 1785.9056,774.861723 1785.91686,774.839212 C1785.2665,776.412127 1780.40988,779.268137 1779.70884,779.768993 C1787.89591,780.739602 1785.77034,796.802456 1783.65799,796.892533 L1783.53586,796.877684 L1783.77448,797.085279 C1787.34977,800.468259 1779.2826,805.678941 1776.54711,806.553575 C1768.77934,809.038163 1761.40855,803.638476 1756.21408,798.244418 C1744.58636,786.170393 1736.14288,765.629638 1736.88897,748.893143 C1737.93349,725.403523 1753.36768,711.784721 1766.09905,694.175948 C1775.62928,681.001726 1761.47049,673.995359 1751.61648,665.728409 C1739.55518,655.618418 1723.15249,643.18704 1719.18555,627.080837 C1715.57335,612.409673 1725.58784,607.38985 1738.42056,611.801892 C1755.76361,617.761525 1769.79853,633.09956 1785.16796,642.697439 C1798.80872,651.214818 1816.02788,668.606928 1832.69523,669.6002 C1829.63767,658.724855 1814.49347,659.878514 1808.63457,651.800088 C1800.89776,641.127337 1812.91683,636.369198 1822.01067,637.593202 C1829.06895,638.541453 1849.20772,653.477114 1848.68405,636.256646 C1848.40251,627.030189 1833.00492,623.940634 1826.30139,621.27315 C1792.2375,607.721879 1757.34588,598.478539 1721.2211,592.200946 C1709.51173,590.169381 1706.51611,591.593165 1700.8571,602.158992 C1698.93698,605.74659 1692.03354,622.252353 1688.24961,611.309476 C1683.30008,620.277064 1681.85858,629.832736 1671.09801,633.44003 C1657.40376,638.026527 1639.79888,631.236823 1627.18294,625.972199 C1616.35479,621.453233 1606.0644,615.116551 1599.11592,605.453954 C1595.65857,600.650794 1593.13876,595.318639 1591.50581,589.634759 C1590.12062,584.809088 1590.77662,576.899491 1588.27088,572.515587 C1584.08434,565.185633 1574.10364,566.766989 1566.39781,566.035401 C1549.19553,564.400582 1532.21005,562.923336 1514.91768,562.720742 C1500.55054,562.554728 1486.83377,561.682449 1472.87487,565.157495 Z M1846.87373,1209.20865 C1841.37238,1211.17831 1851.14474,1217.7598 1854.37404,1216.98319 C1853.05078,1214.85033 1850.85475,1207.78487 1846.87373,1209.20865 Z M1851.82692,1137.26051 L1851.6777,1137.37447 C1851.48655,1137.54717 1851.35819,1137.76687 1851.3024,1138.03916 C1851.42656,1137.83769 1851.5554,1137.64151 1851.6889,1137.45063 L1851.82692,1137.26051 Z M1961.87052,964.401401 C1966.85383,968.58271 1964.84361,978.265003 1968.2531,984.213381 C1977.37791,1000.1395 1993.82283,1015.84896 2009.31896,1025.46935 C2026.00882,1035.82695 2033.9061,1049.26849 2037.99411,1068.03092 C2038.84155,1071.90834 2041.39233,1077.29114 2040.14791,1081.30644 C2038.98232,1085.05723 2034.76763,1086.30375 2033.47253,1089.64655 C2032.87847,1091.17444 2035.36168,1103.00085 2035.06043,1103.03743 C2033.62175,1103.21188 2029.42112,1097.26069 2029.44646,1097.29165 C2027.78157,1101.41765 2028.36048,1106.10559 2023.87471,1108.31368 L2023.32882,1108.55691 L2023.39899,1108.60887 C2024.51741,1109.47448 2029.6182,1113.70678 2028.40194,1114.63592 C2026.70423,1115.93027 2022.55429,1115.04392 2020.43709,1115.79802 C2017.09517,1116.99107 2014.68517,1119.96526 2011.46994,1121.34965 C2002.84628,1125.06106 1992.90219,1123.91584 1983.7999,1122.60742 C1964.62683,1119.85552 1943.05219,1113.0011 1929.19183,1098.80547 C1912.40342,1081.61033 1916.38725,1063.79333 1914.87255,1044.50472 C1913.17203,1022.86658 1928.78922,990.066089 1941.33478,973.290201 C1945.61423,967.5613 1954.19003,957.966235 1961.87052,964.401401 Z M582.723278,796.046838 C581.639338,798.607398 582.720463,802.602997 582.084175,805.413986 C580.80034,811.109121 577.495025,816.095178 574.31359,820.875828 C568.358956,829.823719 562.367721,838.023138 558.305056,848.11906 C548.329989,872.900215 539.078487,899.608824 534.300703,925.884108 C524.052539,982.295212 558.268456,1028.82143 560.13227,1083.76373 C575.845183,1067.22983 599.739735,1066.43915 621.030014,1066.39131 C649.361683,1066.32941 677.431517,1067.51965 705.6562,1069.99861 C759.65051,1074.74268 814.847009,1076.66732 866.020259,1096.39207 C871.653934,1098.56433 875.879894,1099.50414 881.536092,1100.68875 C887.749746,1101.99154 884.458508,1099.08488 889.002612,1102.75971 C890.224508,1103.75017 890.711578,1107.32088 891.989783,1108.57302 C898.600412,1115.03633 902.558906,1110.64398 908.158796,1103.71077 C923.564827,1084.62475 938.937073,1067.28048 958.757698,1052.44893 C1000.9807,1020.84711 1048.27428,1006.25474 1100.32313,1001.55569 C1130.15543,998.862879 1159.28386,997.30966 1189.24566,997.599482 C1217.85325,997.875234 1248.05718,998.398601 1275.1585,1008.62959 C1268.41836,989.349414 1256.90607,972.072669 1247.6236,953.985549 C1243.1161,945.203673 1238.93518,935.971588 1233.20297,927.890349 C1228.16616,920.785499 1220.56169,914.980625 1217.07337,906.868433 C1216.45116,908.497625 1215.82895,910.126816 1215.20393,911.753194 C1160.17072,895.998716 1103.42011,887.512289 1046.99608,878.502495 C990.318665,869.450493 934.345107,856.906564 877.788756,847.258036 C849.392332,842.412669 820.891737,839.500384 792.289787,836.253256 C764.7577,833.129936 738.213829,827.021172 711.067456,821.829707 C683.574785,816.570711 656.816941,810.200263 629.783185,802.957536 C618.448265,799.921444 607.718663,795.731693 596.687809,792.076564 C587.889592,789.164279 585.890636,788.539614 582.723278,796.046838 Z M1799.71219,896.059776 C1801.3564,902.804459 1796.10281,911.504735 1794.41918,917.908949 C1792.51032,925.171372 1788.36882,928.080843 1786.20939,934.684837 C1784.33431,940.422179 1787.71564,970.83938 1773.03881,961.756427 C1773.48927,963.939937 1775.90491,966.933822 1776.15267,968.880973 C1776.468,971.303657 1774.10867,975.012248 1774.79282,977.102903 C1775.4094,978.985337 1781.85673,984.497575 1783.4193,987.640592 C1789.58227,999.987555 1793.93774,1014.20007 1796.97559,1027.65004 C1800.14013,1041.67122 1803.98601,1061.09771 1792.36673,1070.77719 C1789.57382,1073.10139 1787.14129,1073.72605 1784.27519,1076.52016 C1783.94015,1079.10323 1782.76048,1081.2389 1780.73619,1082.92437 C1779.62691,1083.2367 1778.73442,1082.96095 1778.06716,1082.09711 C1774.52535,1084.01613 1775.70502,1075.95458 1771.54381,1083.78821 C1770.5387,1085.67908 1772.35184,1092.1649 1771.45372,1091.49803 C1769.82077,1090.29653 1764.89658,1085.16134 1763.30023,1085.06568 C1759.72745,1089.92511 1759.8091,1084.97563 1756.03643,1085.66783 C1755.88721,1087.68251 1754.79482,1088.79115 1752.75645,1088.99093 C1751.16573,1088.62795 1749.57783,1088.25934 1747.98993,1087.89355 C1738.38087,1087.94982 1724.18829,1083.92046 1714.96212,1081.37397 C1697.35161,1076.51453 1684.78635,1064.40393 1680.96581,1046.05512 C1673.0094,1007.83244 1705.17569,960.051262 1728.17212,932.259339 C1736.02717,922.765571 1791.19551,861.140492 1799.71219,896.059776 Z M1953.29191,1019.19738 C1953.04415,1022.40793 1954.03799,1027.20546 1950.42861,1027.56 C1950.59191,1023.93864 1949.06876,1019.29868 1953.29191,1019.19738 Z M1702.71782,1013.75549 C1704.35921,1023.01008 1704.73648,1017.72576 1701.01167,1024.09058 C1699.7588,1020.3426 1700.32752,1016.89851 1702.71782,1013.75549 Z M1969.36801,1001.82215 C1970.79825,1003.60048 1976.27426,1008.40082 1971.55841,1009.63046 C1967.43381,1010.70251 1969.19345,1004.01411 1969.36801,1001.82215 Z M1770.96665,937.667467 C1769.09157,947.625512 1774.74214,945.242222 1782.51554,943.432947 C1778.66685,941.511121 1774.81534,939.589294 1770.96665,937.667467 Z M330.167973,535.941788 C292.9311,567.875627 291.807744,623.71553 292.981778,668.663204 C294.578127,729.736779 298.286048,790.979181 304.192819,851.78263 C306.861846,879.256594 314.702818,893.246818 341.837929,902.453578 C371.233831,912.425693 402.896153,910.495424 433.387257,908.725543 C427.556502,863.420515 416.145565,803.815746 461.61757,773.663043 C465.778775,770.905517 469.585236,768.868324 474.650194,768.60664 C477.994925,768.434999 482.792417,771.465463 485.968221,769.915058 C492.390217,766.777669 488.716081,757.891682 486.612955,752.863418 C480.219114,737.578845 468.017042,725.347247 458.117991,712.378433 C445.685053,696.097775 435.003313,696.536728 416.43837,698.545782 C409.036605,699.35053 379.919431,702.665189 385.651646,686.871318 C389.815667,675.388191 412.691033,678.263897 421.959427,675.604854 C428.983925,673.587358 430.416978,672.698196 430.115727,665.523001 C429.63992,654.31 423.206663,651.265466 413.225965,651.57217 C400.387605,651.963289 378.159788,658.783945 367.469601,648.693651 C352.204342,634.281357 374.843212,624.191062 386.321718,622.232656 C398.337972,620.184208 414.408445,622.049759 417.181643,607.184443 C419.822516,593.005694 412.339104,575.847129 406.491457,563.362289 C400.832443,551.28545 393.098458,535.893953 381.290546,528.642785 C364.628833,518.414614 344.073381,524.014081 330.167973,535.941788 Z M474.695241,802.740874 C459.570753,806.131505 450.868259,825.814051 449.111431,839.576357 C447.413727,852.888454 448.570869,871.887246 458.337594,882.11823 C471.156246,895.54288 493.502311,894.63965 507.297917,907.239855 C513.410215,876.918324 524.711349,847.739196 539.55711,820.645096 C527.833661,817.417665 516.408647,813.244797 504.848493,809.499626 C496.390942,806.761797 483.777817,800.703681 474.695241,802.740874 Z M1445.54549,868.063289 C1448.93808,870.961505 1450.01076,871.842225 1450.88636,876.392143 C1442.83423,876.901441 1445.25832,874.315557 1445.54549,868.063289 Z M1525.40938,652.386485 C1537.99435,652.712886 1543.8786,656.784457 1553.97754,662.811621 C1561.17378,667.108297 1569.90443,662.48522 1569.90443,673.399959 C1590.44862,657.262804 1628.76099,698.929585 1643.16191,709.844323 C1658.35397,721.355588 1673.31234,734.906858 1674.99316,755.450427 C1675.49149,761.533868 1674.23017,767.769253 1675.14519,773.827369 C1675.83497,778.391356 1678.72642,782.952529 1678.23372,787.685344 C1677.65374,793.172258 1673.01109,796.379993 1671.94123,801.537692 C1671.51892,803.580512 1672.96605,807.683036 1672.06792,809.334737 C1662.85865,826.209108 1651.05637,840.053015 1630.85003,841.721599 C1613.25078,843.176335 1593.80743,836.898743 1580.98033,824.624938 C1569.60036,813.738338 1562.81518,797.423913 1559.86742,782.167478 C1559.35501,779.528132 1560.32634,773.481271 1559.45637,771.249926 C1558.19224,767.997171 1556.28901,767.940895 1554.72082,765.30999 C1550.56243,758.331761 1544.59372,745.18005 1549.99089,737.512439 C1536.68517,740.514766 1526.57215,712.022206 1521.60573,703.713049 C1517.88092,697.491732 1508.90533,692.621041 1506.41367,686.568552 C1502.99574,678.267836 1515.27665,674.705563 1511.02253,668.9232 C1508.74485,665.828017 1496.52025,667.935555 1497.71963,660.180717 C1498.83454,653.008335 1520.60344,652.259864 1525.40938,652.386485 Z M1783.16619,796.603971 C1783.28659,796.757298 1783.40983,796.846925 1783.53382,796.879175 L1783.53586,796.877684 L1783.49185,796.841095 L1783.16619,796.603971 Z M1748.03807,734.475221 C1749.1924,733.484763 1755.37508,727.229681 1756.10146,731.920289 C1756.69552,735.763943 1749.88781,734.475221 1748.03807,734.475221 Z M1171.08051,247.214742 C1157.66217,248.033558 1145.70223,262.51057 1135.70745,270.11065 C1120.78286,281.4559 1103.14701,289.784754 1085.55902,296.082043 C1065.08522,303.40637 1044.03988,309.925949 1023.01988,315.483208 C1001.69863,321.122068 979.490522,322.275726 958.236843,328.134062 C968.752473,347.369213 979.270919,366.607178 989.789364,385.845143 C994.401038,379.500019 992.824397,372.336079 1000.4148,367.774906 C1005.68246,364.609379 1013.30665,364.176053 1019.26128,363.005512 C1035.83853,359.744315 1054.02902,356.857354 1070.85685,360.231103 C1081.71314,362.408986 1093.79415,370.763164 1083.5122,382.429187 C1077.02264,389.790094 1063.05529,387.899219 1061.91504,399.590566 C1060.82265,410.792312 1072.26738,420.415515 1069.61806,432.194091 C1065.89324,448.750502 1049.34133,443.792583 1041.9818,433.08888 C1035.41903,423.544463 1037.90787,406.571609 1027.77514,399.689049 C1021.73041,395.583712 1005.57266,394.103652 999.063389,397.618091 C1011.02615,419.683927 1034.27597,446.890579 1020.63803,473.269974 C1016.44585,481.373724 1007.29007,484.463279 1013.42771,492.426338 C1020.5057,501.610588 1040.92883,509.176902 1051.80202,506.365914 C1061.98261,503.735009 1073.64694,492.271579 1085.09729,497.944204 C1095.90854,503.29887 1088.24776,512.390264 1089.20219,520.800719 C1092.07956,546.133379 1144.06365,531.684505 1158.1774,528.322012 C1172.33619,524.951077 1187.10875,516.793864 1201.72365,516.459022 C1215.50799,516.141062 1228.30694,522.781635 1239.22799,530.558984 C1247.40681,536.383555 1261.0166,553.42394 1271.39146,553.992328 C1281.80292,554.56353 1296.55858,539.160777 1305.74533,534.498307 C1322.22686,526.13006 1340.24279,523.71019 1357.70972,518.133234 C1360.48291,517.2497 1372.59771,514.759486 1372.81895,510.716052 C1373.02284,506.830191 1358.70356,498.329695 1356.27103,496.472586 C1334.04884,479.513801 1317.77285,456.133919 1294.65535,440.25282 C1284.34806,433.17048 1273.21304,428.178795 1261.17145,424.990758 C1254.48762,423.22369 1236.28868,420.8404 1235.81006,411.31568 C1267.87499,405.946945 1268.67457,365.965631 1255.15206,343.294828 C1246.55092,328.876906 1233.2086,322.01967 1216.35544,325.12048 C1191.9344,329.616936 1187.46913,347.481765 1181.87769,368.68095 C1161.92192,357.83093 1140.16709,331.260196 1138.9818,307.846549 C1137.66699,281.816066 1165.63266,270.622762 1171.08051,247.214742 Z M1766.81051,422.155008 C1800.4549,428.393207 1833.36445,436.707992 1865.76442,447.757793 C1885.72019,454.56438 1914.75571,460.417089 1932.0143,473.186123 C1937.0511,476.917224 1943.39708,485.122271 1938.79948,491.67843 C1934.83817,497.331358 1925.13902,495.809091 1919.4068,494.928371 C1893.35845,490.924331 1867.83939,480.029289 1842.06976,474.15407 C1773.57881,458.543096 1703.31413,451.207514 1633.33944,446.210202 C1614.04248,444.834253 1594.73145,443.644014 1575.43449,442.287762 C1559.36402,441.162241 1541.70283,441.671539 1525.9674,438.036107 C1513.55698,435.168843 1510.46564,426.054938 1519.75937,415.793001 C1528.81943,405.792749 1544.01712,407.351595 1556.15443,405.525438 C1626.77667,400.91643 1697.44959,409.293119 1766.81051,422.155008 Z M1649.76465,340.473429 C1672.65973,348.357702 1645.90188,352.116942 1635.8874,351.289684 C1632.49199,351.011117 1587.70977,346.570938 1587.70977,347.946887 C1578.77078,347.946887 1555.12399,354.778798 1548.70481,345.746494 C1541.80982,336.047318 1571.32678,332.642617 1577.29268,332.212106 C1600.22998,330.560404 1627.71702,332.884604 1649.76465,340.473429 Z" id="Ink" fill="#000000"></path>
        </g>
    </g>
</svg>