<svg xmlns="http://www.w3.org/2000/svg" version="1.1" xmlns:xlink="http://www.w3.org/1999/xlink" xmlns:svgjs="http://svgjs.dev/svgjs" viewBox="0 0 2400 800" opacity="1"><defs><linearGradient x1="50%" y1="0%" x2="50%" y2="100%" id="sssurf-grad"><stop stop-color="hsla(230, 1%, 99%, 1.00)" stop-opacity="1" offset="0%"></stop><stop stop-color="hsla(0, 0%, 100%, 1.00)" stop-opacity="1" offset="100%"></stop></linearGradient></defs><g fill="url(#sssurf-grad)" transform="matrix(1,0,0,1,6.8720703125,217.50730895996094)"><path d="M-10,10C63.51190476190476,17.708333333333336,197.91666666666666,58.04166666666667,342.85714285714283,47C487.79761904761904,35.95833333333333,542.8571428571429,-41.75,685.7142857142857,-43C828.5714285714284,-44.25,885.7142857142856,34.958333333333336,1028.5714285714284,41C1171.4285714285713,47.041666666666664,1228.5714285714284,-10.666666666666668,1371.4285714285713,-14C1514.2857142857142,-17.333333333333332,1571.4285714285713,22.708333333333332,1714.2857142857142,25C1857.142857142857,27.291666666666668,1914.285714285714,-7.791666666666667,2057.142857142857,-3C2199.9999999999995,1.791666666666667,2276.4880952380954,-35.95833333333334,2400,48C2523.5119047619046,131.95833333333334,3254.1666666666665,222.5,2650,400C2045.8333333333335,577.5,156.25,795.8333333333334,-500,900" transform="matrix(1,0,0,1,0,77)" opacity="0.05"></path><path d="M-10,10C63.51190476190476,17.708333333333336,197.91666666666666,58.04166666666667,342.85714285714283,47C487.79761904761904,35.95833333333333,542.8571428571429,-41.75,685.7142857142857,-43C828.5714285714284,-44.25,885.7142857142856,34.958333333333336,1028.5714285714284,41C1171.4285714285713,47.041666666666664,1228.5714285714284,-10.666666666666668,1371.4285714285713,-14C1514.2857142857142,-17.333333333333332,1571.4285714285713,22.708333333333332,1714.2857142857142,25C1857.142857142857,27.291666666666668,1914.285714285714,-7.791666666666667,2057.142857142857,-3C2199.9999999999995,1.791666666666667,2276.4880952380954,-35.95833333333334,2400,48C2523.5119047619046,131.95833333333334,3254.1666666666665,222.5,2650,400C2045.8333333333335,577.5,156.25,795.8333333333334,-500,900" transform="matrix(1,0,0,1,0,154)" opacity="0.53"></path><path d="M-10,10C63.51190476190476,17.708333333333336,197.91666666666666,58.04166666666667,342.85714285714283,47C487.79761904761904,35.95833333333333,542.8571428571429,-41.75,685.7142857142857,-43C828.5714285714284,-44.25,885.7142857142856,34.958333333333336,1028.5714285714284,41C1171.4285714285713,47.041666666666664,1228.5714285714284,-10.666666666666668,1371.4285714285713,-14C1514.2857142857142,-17.333333333333332,1571.4285714285713,22.708333333333332,1714.2857142857142,25C1857.142857142857,27.291666666666668,1914.285714285714,-7.791666666666667,2057.142857142857,-3C2199.9999999999995,1.791666666666667,2276.4880952380954,-35.95833333333334,2400,48C2523.5119047619046,131.95833333333334,3254.1666666666665,222.5,2650,400C2045.8333333333335,577.5,156.25,795.8333333333334,-500,900" transform="matrix(1,0,0,1,0,231)" opacity="1.00"></path></g></svg>